<svg xmlns="http://www.w3.org/2000/svg" version="1.1" xmlns:xlink="http://www.w3.org/1999/xlink" xmlns:svgjs="http://svgjs.dev/svgjs" width="1000" height="1000"><g clip-path="url(#SvgjsClipPath1196)"><rect width="1000" height="1000" fill="#ffffff"></rect><g transform="matrix(6.25,0,0,6.25,99.04027843475342,99.1518372297287)"><svg xmlns="http://www.w3.org/2000/svg" version="1.1" xmlns:xlink="http://www.w3.org/1999/xlink" xmlns:svgjs="http://svgjs.dev/svgjs" width="128" height="128"><svg width="128" height="128" viewBox="0 0 33.866666 33.866667" version="1.1" id="svg1" inkscape:version="1.1.2 (0a00cf5339, 2022-02-04)" sodipodi:docname="po_bw_128px.svg" xmlns:inkscape="http://www.inkscape.org/namespaces/inkscape" xmlns:sodipodi="http://sodipodi.sourceforge.net/DTD/sodipodi-0.dtd" xmlns="http://www.w3.org/2000/svg" xmlns:svg="http://www.w3.org/2000/svg">
  <sodipodi:namedview id="namedview1" pagecolor="#ffffff" bordercolor="#666666" borderopacity="1.0" inkscape:showpageshadow="2" inkscape:pageopacity="0.0" inkscape:pagecheckerboard="0" inkscape:deskcolor="#d1d1d1" inkscape:document-units="mm" inkscape:zoom="1.9754548" inkscape:cx="239.69164" inkscape:cy="-89.599622" inkscape:window-width="1920" inkscape:window-height="1050" inkscape:window-x="0" inkscape:window-y="0" inkscape:window-maximized="1" inkscape:current-layer="layer1" showgrid="false" inkscape:pageshadow="2" width="128px"></sodipodi:namedview>
  <defs id="defs1"><clipPath id="SvgjsClipPath1196"><rect width="1000" height="1000" x="0" y="0" rx="50" ry="50"></rect></clipPath></defs>
  <g inkscape:label="Calque 1" inkscape:groupmode="layer" id="layer1">
    <path id="text1" style="font-size:134.537px;line-height:1.25;font-family:'Milk Cream';-inkscape-font-specification:'Milk Cream';fill:#000000;fill-opacity:1;stroke:#000000;stroke-width:1.07627;stroke-opacity:1" d="M 6.222834,32.425308 C 6.644048,32.249306 7.360113,31.941301 7.360113,31.501297 V 22.789206 C 13.088626,20.677183 19.870176,16.409138 21.555034,9.8530689 22.018369,8.1370501 22.060491,6.2010307 21.512914,4.529013 20.586242,1.9769859 18.438049,0.56897127 15.826521,0.56897127 c -3.24335,0 -6.4867,2.37602523 -8.592771,4.75205013 V 2.1529879 C 7.23375,1.8889851 7.14951,1.7129833 7.023143,1.4929809 6.559805,0.87697455 5.380405,0.65697208 4.327369,0.65697208 c -0.968792,0 -3.243349,0.30800328 -3.243349,1.58401672 0,7.7000814 -0.58970002,15.4001622 -0.50545702,23.0562432 0.04212,1.93602 0.126364,3.872039 0.29485,5.808062 C 1.08402,32.601311 2.55827,32.821312 3.779791,32.821312 c 0.88455,0 1.811221,-0.176004 2.443043,-0.396004 z M 7.275869,10.469076 c 0.968793,-2.1120229 2.864258,-4.7080499 5.349422,-4.7080499 1.010914,0 1.979707,0.4400046 2.443042,1.4520148 1.095157,2.4200252 -1.305764,6.5560691 -3.032742,8.4920901 -1.347886,1.540017 -2.9485,2.772029 -4.7176,3.696038 0,-2.992031 -0.04212,-5.940061 -0.04212,-8.932093 z"></path>
    <path id="path2-2" style="font-size:134.537px;line-height:1.25;font-family:'Milk Cream';-inkscape-font-specification:'Milk Cream';fill:#000000;fill-opacity:1;stroke:#000000;stroke-width:1.07627;stroke-opacity:1" d="m 24.163557,12.043099 c -0.524225,0 -1.028031,0.0369 -1.514136,0.104115 -1.21717,3.35738 -3.78801,6.057252 -6.766707,8.131739 -0.143146,1.141342 -0.164625,2.299336 -0.101281,3.42422 0.336971,4.972048 2.737833,9.680011 7.96088,9.680011 5.138776,0 9.224519,-4.707965 9.603612,-9.856015 0.210604,-2.332022 -0.29489,-4.796058 -1.305804,-6.908078 -1.558494,-3.300032 -4.422632,-4.575997 -7.876564,-4.575997 z m 0.421179,18.040114 c -1.72697,-0.528005 -2.485153,-3.608039 -2.527274,-5.500059 -0.08424,-2.068019 0.29485,-4.180042 1.010911,-6.072063 0.631816,-1.584015 1.937575,-2.86003 3.369697,-2.86003 1.895451,0 3.201209,2.068022 3.664542,3.784041 0.505457,1.804018 0.463333,3.828038 -0.04212,5.632059 -0.379088,1.496015 -1.13727,2.992031 -2.274541,4.004041 -0.842425,0.748008 -2.10606,1.276014 -3.201211,1.012011 z"></path>
  </g>
</svg></svg></g></g></svg>