<?xml version="1.0" encoding="UTF-8" standalone="no"?>
<!-- Created with Inkscape (http://www.inkscape.org/) -->

<svg
   width="48"
   height="48"
   viewBox="0 0 12.7 12.7"
   version="1.1"
   id="svg1"
   inkscape:version="1.2.2 (b0a8486541, 2022-12-01)"
   sodipodi:docname="po_logo_48x48.svg"
   xmlns:inkscape="http://www.inkscape.org/namespaces/inkscape"
   xmlns:sodipodi="http://sodipodi.sourceforge.net/DTD/sodipodi-0.dtd"
   xmlns="http://www.w3.org/2000/svg"
   xmlns:svg="http://www.w3.org/2000/svg">
  <sodipodi:namedview
     id="namedview1"
     pagecolor="#ffffff"
     bordercolor="#666666"
     borderopacity="1.0"
     inkscape:showpageshadow="2"
     inkscape:pageopacity="0.0"
     inkscape:pagecheckerboard="0"
     inkscape:deskcolor="#d1d1d1"
     inkscape:document-units="mm"
     inkscape:zoom="15.803638"
     inkscape:cx="31.037157"
     inkscape:cy="25.500458"
     inkscape:window-width="2560"
     inkscape:window-height="1392"
     inkscape:window-x="0"
     inkscape:window-y="0"
     inkscape:window-maximized="1"
     inkscape:current-layer="layer1"
     showgrid="false" />
  <defs
     id="defs1" />
  <g
     inkscape:label="Calque 1"
     inkscape:groupmode="layer"
     id="layer1">
    <path
       id="text1"
       style="font-size:134.537px;line-height:1.25;font-family:'Milk Cream';-inkscape-font-specification:'Milk Cream';fill:#000000;fill-opacity:1;stroke:#000000;stroke-width:0.382653;stroke-opacity:1"
       d="m 2.4576811,11.645073 c 0.1515589,-0.06183 0.40921,-0.170034 0.40921,-0.32461 V 8.2598548 C 4.9280958,7.5178889 7.3681985,6.0185008 7.9744348,3.7153152 8.1411501,3.1124676 8.1563065,2.4323329 7.9592836,1.8449435 7.625853,0.94840166 6.8529014,0.45375813 5.9132344,0.45375813 c -1.167006,0 -2.3340113,0.83471127 -3.0918073,1.66942257 V 1.0102323 c 0,-0.0927457 -0.030311,-0.15457618 -0.075782,-0.2318643 C 2.5789297,0.56196143 2.1545642,0.48467336 1.7756661,0.48467336 c -0.348586,0 -1.16700522,0.10820331 -1.16700522,0.55647404 0,2.7050835 -0.21218277,5.4101658 -0.18187168,8.0997916 0.0151599,0.6801344 0.0454709,1.36027 0.10609225,2.040406 0.075782,0.525559 0.60623645,0.602847 1.04575745,0.602847 0.3182751,0 0.6517048,-0.06182 0.8790439,-0.139119 z M 2.8365792,3.9317214 c 0.3485861,-0.741965 1.0306019,-1.6539646 1.9248013,-1.6539646 0.3637416,0 0.7123277,0.1545761 0.879043,0.5101012 C 6.0344771,3.6380273 5.1705905,5.0910434 4.5491977,5.7711787 4.0642083,6.3121948 3.488283,6.7450082 2.8517347,7.069618 c 0,-1.0511172 -0.015151,-2.0867783 -0.015151,-3.1378966 z" />
    <path
       id="path2-2"
       style="font-size:134.537px;line-height:1.25;font-family:'Milk Cream';-inkscape-font-specification:'Milk Cream';fill:#000000;fill-opacity:1;stroke:#000000;stroke-width:0.382653;stroke-opacity:1"
       d="m 8.9130215,4.4846857 c -0.1886239,0 -0.3699014,0.012958 -0.5448092,0.036579 -0.4379561,1.1794674 -1.3629828,2.1279474 -2.4347624,2.8567277 -0.051502,0.4009598 -0.059237,0.8077692 -0.036445,1.2029473 0.121247,1.7467103 0.9851129,3.4006433 2.8644437,3.4006433 1.8490074,0 3.3191184,-1.653934 3.4555214,-3.4624738 C 12.292752,7.6998559 12.110865,6.834225 11.747122,6.0922601 11.186353,4.9329401 10.155794,4.4846867 8.9130181,4.4846867 Z m 0.151546,6.3375963 C 8.4431778,10.636791 8.170372,9.5547573 8.1552165,8.8900793 8.1249054,8.1635718 8.2613078,7.4216058 8.5189572,6.7569289 8.7462941,6.2004545 9.2161255,5.7521836 9.7314251,5.7521836 c 0.6820119,0 1.1518419,0.7265075 1.3185559,1.329355 0.181871,0.6337623 0.166715,1.3448125 -0.01516,1.9785748 -0.136401,0.5255586 -0.409207,1.0511186 -0.818414,1.4066436 -0.3031164,0.26278 -0.7577911,0.448271 -1.151843,0.355525 z" />
  </g>
</svg>
