<?xml version="1.0" encoding="UTF-8" standalone="no"?>
<!-- Created with Inkscape (http://www.inkscape.org/) -->

<svg
   width="48mm"
   height="90mm"
   viewBox="0 0 48 90.000002"
   version="1.1"
   id="svg5"
   sodipodi:docname="seahorse_48x90.svg"
   inkscape:version="1.2.2 (b0a8486541, 2022-12-01)"
   xmlns:inkscape="http://www.inkscape.org/namespaces/inkscape"
   xmlns:sodipodi="http://sodipodi.sourceforge.net/DTD/sodipodi-0.dtd"
   xmlns="http://www.w3.org/2000/svg"
   xmlns:svg="http://www.w3.org/2000/svg">
  <sodipodi:namedview
     id="namedview381"
     pagecolor="#83ff86"
     bordercolor="#666666"
     borderopacity="1.0"
     inkscape:showpageshadow="2"
     inkscape:pageopacity="0"
     inkscape:pagecheckerboard="0"
     inkscape:deskcolor="#d1d1d1"
     inkscape:document-units="mm"
     showgrid="false"
     inkscape:zoom="2.428287"
     inkscape:cx="90.392938"
     inkscape:cy="71.243637"
     inkscape:window-width="1920"
     inkscape:window-height="1032"
     inkscape:window-x="0"
     inkscape:window-y="0"
     inkscape:window-maximized="1"
     inkscape:current-layer="svg5" />
  <defs
     id="defs2" />
  <g
     id="layer1"
     transform="translate(-44.292867,-26.556214)"
     style="fill:#ffffff;fill-opacity:1">
    <path
       id="path1662"
       style="fill:#ffffff;fill-opacity:1;stroke:none;stroke-width:0.13995;stroke-linecap:butt;stroke-linejoin:miter;stroke-miterlimit:4;stroke-dasharray:none;stroke-opacity:1"
       d="m 66.813702,27.621685 c -0.381876,0.0072 -0.762104,0.02125 -1.139263,0.04094 -1.85909,0.09708 -5.403773,1.338122 -5.403773,1.338122 0,0 0.112561,1.082238 0.0992,1.624463 -0.02449,0.993658 -0.18838,1.980429 -0.328234,2.965511 -0.04824,0.339769 -0.09447,0.681045 -0.175919,1.015091 -0.176532,0.724044 -0.415006,1.434399 -0.675297,2.135466 -0.246422,0.66371 -0.506864,1.326019 -0.837727,1.956003 -0.395602,0.753252 -0.867754,1.470514 -1.365206,2.167635 -0.54071,0.757745 -1.096522,1.513884 -1.754983,2.183057 -0.651453,0.66205 -1.403599,1.23156 -2.153191,1.793024 -0.506225,0.379177 -1.034358,0.733096 -1.579062,1.061086 -0.402088,0.242114 -0.818909,0.463311 -1.243803,0.6676 -0.640893,0.308135 -1.295407,0.593477 -1.96547,0.839882 -0.356364,0.131047 -0.727097,0.224037 -1.089802,0.338452 -0.167641,0.05288 -0.501911,0.160852 -0.501911,0.160852 0,0 -0.0097,0.281178 0.13349,0.596345 0.125299,0.275867 0.486526,0.752958 0.795851,1.079962 0.167989,0.177583 0.368192,0.326901 0.568511,0.471388 0.261312,0.188483 0.535242,0.363012 0.822829,0.513394 0.205208,0.1073 0.424506,0.188429 0.64017,0.27544 0.324034,0.130734 0.640174,0.288365 0.981611,0.370358 0.235437,0.05654 0.480751,0.0782 0.723633,0.08109 0.337402,0.004 0.552077,-0.0305 1.008025,-0.08879 0.455951,-0.0583 0.475409,-0.06794 0.708457,-0.1223 0.784939,-0.183101 2.314779,-0.684615 2.314779,-0.684615 0,0 6.043051,-2.188853 9.200385,-2.788708 0.231882,-0.04405 0.470692,-0.06595 0.70705,-0.05796 0.330379,0.01118 0.668835,0.04026 0.979362,0.147558 0.261747,0.09043 0.494837,0.248052 0.716045,0.408376 0.255366,0.185078 0.4803,0.40653 0.696093,0.632238 0.26359,0.275702 0.548506,0.518134 0.727284,0.877634 0.140244,0.282013 0.240628,0.541458 0.285239,0.850253 0.04768,0.330122 0.03859,0.734584 -0.0062,1.065075 -0.05164,0.381194 -0.288417,0.724117 -0.503874,1.049919 -0.203275,0.307382 -0.475481,0.569352 -0.733467,0.837489 -0.467663,0.486061 -0.972172,0.939606 -1.473118,1.395018 -0.513643,0.466954 -1.570913,1.370824 -1.570913,1.370824 0,0 -3.02746,2.622501 -4.443523,4.026064 -0.815457,0.808258 -1.605512,1.642745 -2.328829,2.526031 -0.662137,0.808571 -1.31774,1.632237 -1.834231,2.530813 -0.403725,0.702378 -0.677963,1.465639 -0.97571,2.213892 -0.267783,0.672947 -0.544888,1.346228 -0.72841,2.044009 -0.1088,0.413679 -0.167016,0.838627 -0.218915,1.262083 -0.08171,0.666609 -0.120824,1.337965 -0.145009,2.008644 -0.02199,0.609808 -0.02792,1.220924 0,1.830517 0.02627,0.573614 0.05088,1.150722 0.157655,1.715919 0.126474,0.669495 0.340968,1.32301 0.569071,1.967967 0.316323,0.89442 0.663307,1.783776 1.105819,2.628922 0.407678,0.778614 0.891807,1.522982 1.419164,2.234371 0.601631,0.811587 1.272505,1.578895 1.981768,2.308544 0.562005,0.578158 1.176838,1.109096 1.79545,1.632974 2.165198,1.83363 4.560191,3.417124 6.698442,5.27884 0.622167,0.541701 1.214203,1.115402 1.779432,1.710344 0.580186,0.610676 1.651006,1.836472 1.651006,1.904689 0,0.06822 0.682568,1.238154 0.941986,1.890063 0.322535,0.810524 0.607929,1.642969 0.757916,2.497317 0.09884,0.56304 0.112068,1.13972 0.08965,1.71008 -0.03003,0.76413 -0.118289,1.53126 -0.299849,2.27637 -0.215575,0.88471 -0.478705,1.77676 -0.930746,2.57761 -0.40219,0.71254 -0.952476,1.35302 -1.553771,1.9265 -0.63632,0.60687 -1.27438,1.14247 -2.063827,1.55825 -0.824521,0.43428 -2.210796,0.83553 -2.653411,0.93401 -0.160189,0.0357 -1.899388,0.11249 -2.803195,0.0255 -0.613491,-0.059 -1.231641,-0.15876 -1.810345,-0.36026 -0.336886,-0.1173 -0.946201,-0.4868 -0.946201,-0.4868 0,0 0.372352,-0.0808 0.476331,-0.0808 0.103982,0 0.937585,-0.12338 1.386564,-0.2579 0.595915,-0.17852 1.566181,-0.69134 1.71283,-0.72236 0.146648,-0.0311 0.591844,-0.37169 0.836885,-0.6115 0.325389,-0.31844 0.599914,-0.68786 0.820303,-1.07863 0.210784,-0.37375 0.390813,-0.77373 0.469026,-1.19084 0.127072,-0.67768 0.135842,-1.3908 -0.0118,-2.06473 -0.150108,-0.6852 -0.44339,-1.35972 -0.870887,-1.93075 -0.384887,-0.51411 -0.907711,-0.94389 -1.473118,-1.27672 -0.516322,-0.30391 -1.103029,-0.51662 -1.699904,-0.62665 -0.588062,-0.10841 -1.201987,-0.0878 -1.797135,-0.0226 -0.537478,0.0588 -1.087369,0.14905 -1.57513,0.37062 -0.506881,0.23024 -0.950053,0.58599 -1.341599,0.96776 -0.506781,0.49415 -0.938303,1.06705 -1.270782,1.6795 -0.363236,0.66913 -0.669071,1.39011 -0.767472,2.13653 -0.08735,0.66254 -0.0013,1.34854 0.168051,1.99669 0.207509,0.79407 0.555532,1.56702 1.02264,2.25537 0.671743,0.9899 1.536266,1.87735 2.50475,2.61509 0.75798,0.57739 1.872044,1.27788 2.53173,1.37508 0.659683,0.0972 2.469594,0.49336 2.714673,0.48734 0.245079,-0.006 2.268215,0.14808 2.399086,0.14808 0.130871,0 2.322131,-0.18104 3.463034,-0.39215 1.048378,-0.19398 2.083882,-0.46321 3.090962,-0.80027 0.91321,-0.30564 1.800459,-0.68389 2.661842,-1.10309 0.694175,-0.33784 1.380789,-0.69946 2.01184,-1.1342 0.840003,-0.5787 1.602318,-1.25626 2.340634,-1.94802 0.579739,-0.54321 1.152835,-1.10076 1.634423,-1.72392 0.690994,-0.8941 1.252353,-1.87573 1.779992,-2.86447 0.425168,-0.79671 0.841063,-1.60717 1.111446,-2.46223 0.337631,-1.0677 0.496335,-2.18285 0.624991,-3.290655 0.07274,-0.626406 0.100882,-1.259091 0.08206,-1.889011 -0.03731,-1.249262 -0.191611,-2.495346 -0.386127,-3.731483 -0.143673,-0.913065 -0.273846,-1.83743 -0.57553,-2.715325 -0.382566,-1.113246 -0.903967,-2.192495 -1.54984,-3.19097 -0.508959,-0.78682 -1.108151,-1.534043 -1.811191,-2.173219 -0.199964,-0.181805 -0.673325,-0.462346 -0.673325,-0.462346 0,0 1.58272,-0.267338 2.325738,-0.544236 0.847705,-0.315907 1.620356,-0.793738 2.38813,-1.25783 0.708337,-0.428163 1.399514,-0.887467 2.038814,-1.403794 0.723137,-0.584037 1.41796,-1.209069 2.019425,-1.90575 0.630232,-0.730008 1.172723,-1.530944 1.645947,-2.360395 0.366181,-0.641825 0.718353,-1.304482 0.915006,-2.009708 0.209618,-0.751699 0.268659,-2.318381 0.268659,-2.318381 l -15.684971,0.03272 6.742565,-2.02699 c 0,0 1.50659,-21.3744 -0.150908,-31.887348 C 81.885861,37.29843 81.536892,35.327583 80.457334,33.737485 79.063656,31.684714 76.98447,29.93227 74.643829,28.90823 72.243893,27.858248 69.486841,27.571436 66.81371,27.621685 Z m -4.683513,13.08664 a 1.5459493,1.4625934 0 0 1 1.546182,1.462548 1.5459493,1.4625934 0 0 1 -1.546182,1.46255 1.5459493,1.4625934 0 0 1 -1.545904,-1.46255 1.5459493,1.4625934 0 0 1 1.545904,-1.462548 z" />
  </g>
</svg>
